<?xml version="1.0" encoding="utf-8"?>
<!-- Generator: Adobe Illustrator 21.0.0, SVG Export Plug-In . SVG Version: 6.00 Build 0)  -->
<svg version="1.1" id="Layer_1" xmlns="http://www.w3.org/2000/svg" xmlns:xlink="http://www.w3.org/1999/xlink" x="0px" y="0px"
	 viewBox="0 0 640 212" style="enable-background:new 0 0 640 212;" xml:space="preserve">
<style type="text/css">
	.st0{fill:#FFFFFF;stroke:#B3B3B3;stroke-miterlimit:10;}
	.st1{fill:#FFFFFF;stroke:#808080;stroke-miterlimit:10;}
	.st2{fill:none;stroke:#B3B3B3;stroke-miterlimit:10;}
	.st3{fill-rule:evenodd;clip-rule:evenodd;fill:#B3B3B3;}
	.st4{fill:#808080;}
	.st5{fill:none;stroke:#808080;stroke-miterlimit:10;}
	.st6{font-family:'Helvetica';}
	.st7{font-size:15px;}
</style>
<polyline class="st0" points="427,155 283,155 283,11 "/>
<polyline class="st1" points="283,11 427,11 427,155 "/>
<g>
	<line class="st2" x1="223.5" y1="201.5" x2="283.5" y2="154.5"/>
	<line class="st3" x1="223.5" y1="201.5" x2="283.5" y2="154.5"/>
</g>
<g>
	<path class="st4" d="M366,59v142H224V59H366 M367,58H223v144h144V58L367,58z"/>
</g>
<g>
	<line class="st5" x1="223.5" y1="58.5" x2="283.5" y2="10.5"/>
</g>
<g>
	<line class="st5" x1="366.5" y1="58.5" x2="426.5" y2="11.5"/>
</g>
<g>
	<line class="st5" x1="366.5" y1="201.5" x2="427.5" y2="154.5"/>
</g>
<text transform="matrix(1 0 0 1 194.5 207.5)" class="st6 st7">000</text>
<text transform="matrix(1 0 0 1 377.5 207.5)" class="st6 st7">001</text>
<text transform="matrix(1 0 0 1 432.5 160.5)" class="st6 st7">011</text>
<text transform="matrix(1 0 0 1 432.5 15.5)" class="st6 st7">111</text>
<text transform="matrix(1 0 0 1 250.5 15.5)" class="st6 st7">110</text>
<text transform="matrix(1 0 0 1 194.5 63.5)" class="st6 st7">100</text>
<text transform="matrix(1 0 0 1 373.5 66.5)" class="st6 st7">101</text>
<text transform="matrix(1 0 0 1 251.5 156.5)" class="st6 st7">010</text>
</svg>
